<svg width="60" height="59" viewBox="0 0 60 59" fill="none" xmlns="http://www.w3.org/2000/svg">
<circle cx="48" cy="12" r="12" fill="#0635C9" fill-opacity="0.7"/>
<g clip-path="url(#clip0)">
<path d="M49.9844 39.2824C47.2361 39.2824 44.9142 41.1356 44.198 43.6574H38.3906V37.253H44.3202C50.7605 37.253 56 32.0135 56 25.5731C56 20.4094 52.5752 15.8732 47.7133 14.3958C46.2436 8.51097 40.9315 4.2903 34.7793 4.2903C32.3944 4.2903 30.1097 4.90531 28.0935 6.08033C25.9582 4.12755 23.1583 3.03052 20.2164 3.03052C13.9063 3.03052 8.7488 8.06078 8.54295 14.3216C3.54878 15.7176 0 20.2902 0 25.5731C0 32.0135 5.2395 37.253 11.6798 37.253H17.6094V43.6574H11.802C11.0859 41.1356 8.76389 39.2824 6.01562 39.2824C2.69861 39.2824 0 41.981 0 45.298C0 48.6151 2.69861 51.3137 6.01562 51.3137C8.76389 51.3137 11.0858 49.4605 11.802 46.9387H19.25C20.1561 46.9387 20.8906 46.2041 20.8906 45.298V37.253H26.3594V47.1679C23.8375 47.884 21.9844 50.206 21.9844 52.9543C21.9844 56.2713 24.683 58.9699 28 58.9699C31.317 58.9699 34.0156 56.2713 34.0156 52.9543C34.0156 50.206 32.1625 47.8841 29.6406 47.1679V37.253H35.1094V45.298C35.1094 46.2041 35.8439 46.9387 36.75 46.9387H44.198C44.9141 49.4605 47.2361 51.3137 49.9844 51.3137C53.3014 51.3137 56 48.6151 56 45.298C56 41.981 53.3014 39.2824 49.9844 39.2824ZM6.01562 48.0324C4.50789 48.0324 3.28125 46.8058 3.28125 45.298C3.28125 43.7903 4.50789 42.5637 6.01562 42.5637C7.52336 42.5637 8.75 43.7903 8.75 45.298C8.75 46.8058 7.52336 48.0324 6.01562 48.0324ZM30.7344 52.9543C30.7344 54.462 29.5077 55.6887 28 55.6887C26.4923 55.6887 25.2656 54.462 25.2656 52.9543C25.2656 51.4466 26.4923 50.2199 28 50.2199C29.5077 50.2199 30.7344 51.4466 30.7344 52.9543ZM11.6798 33.9717C7.04889 33.9717 3.28125 30.2042 3.28125 25.5731C3.28125 21.4341 6.36639 17.8615 10.4573 17.2633C11.3206 17.137 11.934 16.3572 11.8535 15.4885C11.8298 15.2323 11.8177 14.9704 11.8177 14.7102C11.8177 10.0794 15.5854 6.31188 20.2163 6.31188C22.6871 6.31188 25.0171 7.38594 26.6087 9.25866C27.1675 9.91611 28.14 10.0283 28.834 9.51558C30.5547 8.24377 32.6105 7.57155 34.7792 7.57155C39.7697 7.57155 43.92 11.2333 44.6958 15.9967C44.8055 16.6702 45.3207 17.2055 45.9896 17.3409C49.8887 18.1303 52.7186 21.5923 52.7186 25.5731C52.7186 30.2042 48.951 33.9717 44.3201 33.9717H11.6798ZM49.9844 48.0324C48.4766 48.0324 47.25 46.8058 47.25 45.298C47.25 43.7903 48.4766 42.5637 49.9844 42.5637C51.4921 42.5637 52.7188 43.7903 52.7188 45.298C52.7188 46.8058 51.4921 48.0324 49.9844 48.0324Z" fill="#0D1C2E"/>
</g>
<defs>
<clipPath id="clip0">
<rect width="56" height="56" fill="white" transform="translate(0 3)"/>
</clipPath>
</defs>
</svg>
