<svg width="60" height="59" viewBox="0 0 60 59" fill="none" xmlns="http://www.w3.org/2000/svg">
<circle cx="48" cy="12" r="12" fill="#0635C9" fill-opacity="0.7"/>
<path d="M44.187 6.00759C39.8049 4.06805 34.0563 3 28.0002 3C21.9436 3 16.1953 4.06706 11.8143 6.00442C6.94381 8.15823 4.26161 11.1965 4.26161 14.5594C4.26161 14.5859 4.26314 14.6121 4.26358 14.6385C4.26314 14.6548 4.26117 14.6706 4.26117 14.6869L4.26161 48.0435C4.26161 51.2674 6.93998 54.1587 11.8035 56.1852C16.1597 58.0004 21.912 59 28.0008 59C34.0896 59 39.8417 58.0004 44.198 56.1852C49.0614 54.1587 51.7277 51.2673 51.7277 48.0435V14.5652C51.7277 14.5589 51.7391 14.553 51.7389 14.5466C51.729 11.1911 49.0483 8.15911 44.187 6.00759ZM13.2915 9.34452C17.2175 7.6083 22.4412 6.65214 28.0002 6.65214C33.5584 6.65214 38.782 7.60928 42.7088 9.34725C46.0765 10.8378 48.0872 12.7884 48.0872 14.5652C48.0872 16.342 46.0765 18.2926 42.7088 19.7832C38.782 21.5211 33.5584 22.4783 28.0002 22.4783C16.5038 22.4783 7.91375 18.2975 7.91375 14.5594C7.91375 12.783 9.92417 10.8337 13.2915 9.34452ZM48.0877 48.0435C48.0877 49.6493 46.1085 51.4327 42.7933 52.8141C38.8719 54.4479 33.6184 55.3479 28.0008 55.3479C22.3832 55.3479 17.1297 54.4479 13.2083 52.8141C9.89311 51.4327 7.90161 49.6493 7.90161 48.0435V43.1021C8.97687 43.884 10.2904 44.5984 11.8036 45.2289C16.1597 47.0439 21.9119 48.0436 28.0007 48.0436C34.0895 48.0436 39.8416 47.044 44.1979 45.2288C45.711 44.5984 47.0124 43.884 48.0876 43.1021V48.0435H48.0877ZM42.7933 41.8575C38.8719 43.4914 33.6184 44.3913 28.0008 44.3913C22.3832 44.3913 17.1297 43.4914 13.2083 41.8575C9.89311 40.4761 7.91386 38.6928 7.91386 37.0869C7.91386 37.0858 7.90161 37.0849 7.90161 37.0839L7.9015 32.1454C8.97687 32.9273 10.2904 33.6416 11.8036 34.2723C16.1599 36.0872 21.912 37.0869 28.0008 37.0869C34.0896 37.0869 39.8417 36.0874 44.198 34.2722C45.7111 33.6417 47.0125 32.9274 48.0877 32.1455V37.0868C48.0877 38.6928 46.1085 40.4761 42.7933 41.8575ZM42.7933 30.901C38.8719 32.5349 33.6184 33.4348 28.0008 33.4348C22.3832 33.4348 17.1297 32.5349 13.2083 30.901C9.89311 29.5196 7.90117 27.7362 7.90117 26.1304C7.90117 26.1283 7.90128 26.1263 7.90128 26.1242L7.90117 20.8627C8.97884 21.6895 10.2959 22.4473 11.8134 23.1196C16.1963 25.0612 21.945 26.1304 28.0004 26.1304C34.0563 26.1304 39.8049 25.0624 44.187 23.1228C45.7048 22.451 47.0098 21.6934 48.0877 20.8668V26.1304C48.0877 27.7362 46.1085 29.5196 42.7933 30.901Z" fill="#0D1C2E"/>
</svg>
