<svg width="60" height="59" viewBox="0 0 60 59" fill="none" xmlns="http://www.w3.org/2000/svg">
<circle cx="48" cy="12" r="12" fill="#0635C9" fill-opacity="0.7"/>
<path d="M56 21.0469C56 20.392 55.873 19.7554 55.6227 19.1546C55.6224 19.1541 55.6222 19.1536 55.622 19.1532L50.1527 6.02859C49.386 4.1888 47.6026 3 45.6095 3H10.3905C8.39738 3 6.61402 4.1888 5.8473 6.02859L0.377344 19.1545C0.126984 19.7554 0 20.392 0 21.0469V27.8281C0 29.0878 0.476219 30.2379 1.25727 31.1094C0.476219 31.9809 0 33.131 0 34.3906V40.9531C0 42.2128 0.476219 43.3629 1.25727 44.2344C0.476219 45.1059 0 46.256 0 47.5156V54.0781C0 56.792 2.20795 59 4.92188 59H51.0781C53.792 59 56 56.792 56 54.0781V47.5156C56 46.256 55.5238 45.1059 54.7427 44.2344C55.5239 43.3629 56 42.2128 56 40.9531V34.3906C56 33.131 55.5238 31.9809 54.7427 31.1094C55.5239 30.2379 56 29.0878 56 27.8281V21.0469ZM8.87611 7.29078C9.13172 6.67752 9.72617 6.28125 10.3905 6.28125H45.6095C46.2738 6.28125 46.8683 6.67752 47.1239 7.29078L50.8055 16.125H5.19455L8.87611 7.29078ZM52.7188 54.0781C52.7188 54.9828 51.9828 55.7188 51.0781 55.7188H4.92188C4.01723 55.7188 3.28125 54.9828 3.28125 54.0781V47.5156C3.28125 46.611 4.01723 45.875 4.92188 45.875H51.0781C51.9828 45.875 52.7188 46.611 52.7188 47.5156V54.0781ZM52.7188 40.9531C52.7188 41.8578 51.9828 42.5938 51.0781 42.5938H4.92188C4.01723 42.5938 3.28125 41.8578 3.28125 40.9531V34.3906C3.28125 33.486 4.01723 32.75 4.92188 32.75H51.0781C51.9828 32.75 52.7188 33.486 52.7188 34.3906V40.9531ZM52.7188 27.8281C52.7188 28.7328 51.9828 29.4688 51.0781 29.4688H4.92188C4.01723 29.4688 3.28125 28.7328 3.28125 27.8281V21.0469C3.28125 20.1345 4.018 19.4062 4.92188 19.4062H51.0781C51.9848 19.4062 52.7188 20.1373 52.7188 21.0469V27.8281Z" fill="#0D1C2E"/>
<path d="M47.7969 49.1562H18.0469C17.1408 49.1562 16.4062 49.8908 16.4062 50.7969C16.4062 51.7029 17.1408 52.4375 18.0469 52.4375H47.7969C48.7029 52.4375 49.4375 51.7029 49.4375 50.7969C49.4375 49.8908 48.7029 49.1562 47.7969 49.1562Z" fill="#0D1C2E"/>
<path d="M47.7969 22.6875H18.0469C17.1408 22.6875 16.4062 23.4221 16.4062 24.3281C16.4062 25.2342 17.1408 25.9688 18.0469 25.9688H47.7969C48.7029 25.9688 49.4375 25.2342 49.4375 24.3281C49.4375 23.4221 48.7029 22.6875 47.7969 22.6875Z" fill="#0D1C2E"/>
<path d="M8.20312 22.6875C7.29706 22.6875 6.5625 23.4221 6.5625 24.3281C6.5625 25.2342 7.29706 26.1875 8.20312 26.1875C9.10919 26.1875 9.84375 25.2342 9.84375 24.3281C9.84375 23.4221 9.10919 22.6875 8.20312 22.6875Z" fill="#0D1C2E"/>
<path d="M47.7969 36.0312H18.0469C17.1408 36.0312 16.4062 36.7658 16.4062 37.6719C16.4062 38.5779 17.1408 39.3125 18.0469 39.3125H47.7969C48.7029 39.3125 49.4375 38.5779 49.4375 37.6719C49.4375 36.7658 48.7029 36.0312 47.7969 36.0312Z" fill="#0D1C2E"/>
<path d="M8.20312 39.3125C9.10922 39.3125 9.84375 38.578 9.84375 37.6719C9.84375 36.7658 9.10922 36.0312 8.20312 36.0312C7.29703 36.0312 6.5625 36.7658 6.5625 37.6719C6.5625 38.578 7.29703 39.3125 8.20312 39.3125Z" fill="#0D1C2E"/>
<path d="M8.20312 52.4375C9.10922 52.4375 9.84375 51.703 9.84375 50.7969C9.84375 49.8908 9.10922 49.1562 8.20312 49.1562C7.29703 49.1562 6.5625 49.8908 6.5625 50.7969C6.5625 51.703 7.29703 52.4375 8.20312 52.4375Z" fill="#0D1C2E"/>
</svg>
