<svg width="60" height="59" viewBox="0 0 60 59" fill="none" xmlns="http://www.w3.org/2000/svg">
<circle cx="48" cy="12" r="12" fill="#0635C9" fill-opacity="0.7"/>
<g clip-path="url(#clip0)">
<path d="M47.7991 11.2011C42.5105 5.91244 35.4791 3 28.0001 3C20.521 3 13.4895 5.91244 8.20106 11.201C2.91244 16.4895 0 23.521 0 31.0001C0 38.4791 2.91244 45.5105 8.20106 50.799C13.4895 56.0876 20.521 59 28.0001 59C35.4792 59 42.5105 56.0876 47.7992 50.7989C53.0876 45.5105 56.0001 38.479 56.0001 30.9999C56.0001 23.5209 53.0876 16.4895 47.7991 11.2011ZM10.5236 13.5236C12.9858 11.0615 15.8763 9.18353 19.0267 7.95776C18.1876 9.00536 17.4024 10.2095 16.6828 11.5638C15.847 13.1366 15.1259 14.8639 14.5254 16.709C12.4448 16.3637 10.5171 15.9391 8.79486 15.4408C9.33463 14.7773 9.91049 14.1368 10.5236 13.5236ZM6.80631 18.2671C8.82067 18.9121 11.1243 19.456 13.638 19.8869C12.938 22.8582 12.526 26.0555 12.4277 29.3578H3.33988C3.59801 25.3948 4.78823 21.6126 6.80631 18.2671ZM6.62748 43.4292C4.71834 40.159 3.59024 36.486 3.33977 32.6423H12.4339C12.5413 35.8502 12.9451 38.9567 13.6215 41.8502C11.0562 42.266 8.69467 42.7962 6.62748 43.4292ZM10.5236 48.4765C9.82583 47.7785 9.17593 47.0457 8.57338 46.2829C10.3587 45.7879 12.3546 45.3687 14.503 45.0325C15.1079 46.9031 15.8368 48.6533 16.6827 50.2455C17.4669 51.7213 18.3291 53.0181 19.2541 54.1289C16.0155 52.9057 13.045 50.9976 10.5236 48.4765ZM26.3577 55.2939C23.863 54.5951 21.5032 52.3171 19.5834 48.7042C18.912 47.4407 18.3222 46.0622 17.817 44.5931C20.5219 44.2954 23.4001 44.1194 26.3577 44.0781V55.2939ZM26.3577 40.7932C23.0777 40.8379 19.8808 41.0439 16.8869 41.3955C16.2265 38.6654 15.8291 35.7104 15.7201 32.6424H26.3578V40.7932H26.3577ZM26.3577 29.3577H15.7138C15.8135 26.204 16.2172 23.1665 16.8981 20.3669C19.8729 20.7388 23.0632 20.965 26.3577 21.0297V29.3577ZM26.3577 17.7447C23.3886 17.6848 20.5167 17.4912 17.831 17.1754C18.3331 15.7215 18.9183 14.357 19.5834 13.105C21.5031 9.49208 23.863 7.21401 26.3577 6.51521V17.7447ZM49.2973 18.4416C51.2522 21.744 52.4065 25.4634 52.6604 29.3577H43.5727C43.4754 26.0935 43.0713 22.932 42.386 19.99C44.9161 19.5814 47.2483 19.0615 49.2973 18.4416ZM45.4764 13.5236C46.1358 14.1831 46.7518 14.8743 47.3263 15.5919C45.5683 16.072 43.6106 16.4794 41.5071 16.8073C40.9003 14.9252 40.168 13.1646 39.3174 11.5638C38.5979 10.2095 37.8127 9.00536 36.9735 7.95776C40.1238 9.18353 43.0143 11.0615 45.4764 13.5236ZM29.6424 32.6424H40.2802C40.1703 35.7343 39.7676 38.7117 39.0978 41.4594C36.1235 41.0896 32.9346 40.8655 29.6424 40.8025V32.6424ZM29.6424 29.3577V21.0407C32.9242 20.9976 36.1237 20.7934 39.1205 20.4431C39.7904 23.2215 40.1875 26.2325 40.2863 29.3577H29.6424ZM29.6422 6.51521H29.6423C32.137 7.21401 34.4968 9.49208 36.4166 13.105C37.0923 14.3767 37.6855 15.7647 38.1928 17.2446C35.4844 17.5412 32.6029 17.7159 29.6422 17.7558V6.51521ZM29.6424 55.2939V44.0876C32.6087 44.1458 35.4784 44.3376 38.1631 44.6515C37.6623 46.0988 37.0791 47.4574 36.4167 48.7042C34.4969 52.3171 32.1371 54.5951 29.6424 55.2939ZM45.4764 48.4765C42.9552 50.9977 39.9846 52.9057 36.7459 54.1288C37.6709 53.0179 38.5331 51.7213 39.3173 50.2455C40.1508 48.677 40.8702 46.9546 41.4698 45.1151C43.5988 45.4666 45.5685 45.9011 47.323 46.4122C46.7496 47.1282 46.1346 47.8181 45.4764 48.4765ZM49.2851 43.5792C47.2469 42.9239 44.9101 42.3726 42.3588 41.9375C43.0475 39.0193 43.4578 35.8825 43.5664 32.6424H52.6606C52.4059 36.5447 51.2477 40.2717 49.2851 43.5792Z" fill="#0D1C2E"/>
</g>
<defs>
<clipPath id="clip0">
<rect width="56" height="56" fill="white" transform="translate(0 3)"/>
</clipPath>
</defs>
</svg>
