<svg width="28" height="28" viewBox="0 0 28 28" fill="none" xmlns="http://www.w3.org/2000/svg">
<g id="Icon/Outline/github">
<path id="Mask" fill-rule="evenodd" clip-rule="evenodd" d="M18.9469 25.6666C18.3029 25.6666 17.7803 25.1451 17.7803 24.5V21.4678C17.8351 20.6943 17.6029 20.0211 17.1468 19.5323C16.8446 19.2103 16.7513 18.746 16.9029 18.333C17.0546 17.9188 17.4256 17.626 17.8643 17.5758C20.7039 17.2468 23.3336 16.2715 23.3336 11.403C23.3336 10.4696 23.0629 9.57014 22.5508 8.8048C22.0829 8.10714 21.9126 7.25664 22.0689 6.40964C22.1716 5.8578 22.1658 5.29664 22.0549 4.75414C21.5836 4.89414 20.7763 5.22664 19.6131 6.0363C19.3273 6.23464 18.9644 6.29414 18.6308 6.2008C16.5261 5.6093 14.3013 5.6093 12.1954 6.2008C11.8606 6.29414 11.5001 6.23464 11.2143 6.0363C10.0628 5.2348 9.2601 4.90114 8.7701 4.76347C8.66044 5.3013 8.65577 5.8578 8.75727 6.40614C8.91244 7.24847 8.73627 8.1083 8.26027 8.8293C7.75394 9.59814 7.4891 10.4965 7.49377 11.4298C7.49377 15.9728 9.68594 17.185 12.9771 17.6085C13.4111 17.6645 13.7774 17.9585 13.9268 18.3703C14.0749 18.7821 13.9804 19.2418 13.6818 19.5615C13.2303 20.0456 12.9981 20.7118 13.0436 21.3896L13.0448 22.309C13.0471 22.3556 13.0471 22.4023 13.0448 22.449L13.0459 24.5C13.0459 25.1451 12.5244 25.6666 11.8793 25.6666C11.2353 25.6666 10.7126 25.1451 10.7126 24.5V23.8338C7.5801 24.2421 5.7951 22.5633 4.55727 21.3966C4.04394 20.9148 3.56094 20.4586 3.20744 20.3665C2.58327 20.2043 2.20877 19.5673 2.37094 18.9443C2.5331 18.3213 3.1701 17.941 3.7931 18.1078C4.72527 18.3505 5.4206 19.005 6.15677 19.698C7.3491 20.8215 8.48077 21.8855 10.7126 21.4713V21.4678C10.6694 20.8506 10.7616 20.2183 10.9751 19.6198C8.57877 19.0225 5.16044 17.2806 5.16044 11.4356C5.15344 10.045 5.55244 8.69864 6.31194 7.5448C6.45427 7.32897 6.50794 7.0758 6.46244 6.82964C6.2291 5.56614 6.36327 4.2688 6.85327 3.08347C6.98627 2.76147 7.25577 2.5153 7.58827 2.41264C7.97444 2.29364 9.39777 2.06614 12.0939 3.81614C14.2768 3.2923 16.5506 3.2923 18.7323 3.81614C21.4296 2.06614 22.8518 2.29247 23.2379 2.41264C23.5704 2.5153 23.8399 2.76147 23.9729 3.08347C24.4641 4.27114 24.5983 5.5673 24.3638 6.8343C24.3183 7.07814 24.3638 7.3173 24.4898 7.50747C25.2598 8.65897 25.6669 10.0053 25.6669 11.403C25.6669 17.311 22.2568 19.0318 19.8569 19.6081C20.0716 20.2253 20.1614 20.8891 20.1101 21.5576L20.1136 24.5C20.1136 25.1451 19.5909 25.6666 18.9469 25.6666Z" fill="#0D1C2E"/>
<mask id="mask0" mask-type="alpha" maskUnits="userSpaceOnUse" x="2" y="2" width="24" height="24">
<path id="Mask_2" fill-rule="evenodd" clip-rule="evenodd" d="M18.9469 25.6666C18.3029 25.6666 17.7803 25.1451 17.7803 24.5V21.4678C17.8351 20.6943 17.6029 20.0211 17.1468 19.5323C16.8446 19.2103 16.7513 18.746 16.9029 18.333C17.0546 17.9188 17.4256 17.626 17.8643 17.5758C20.7039 17.2468 23.3336 16.2715 23.3336 11.403C23.3336 10.4696 23.0629 9.57014 22.5508 8.8048C22.0829 8.10714 21.9126 7.25664 22.0689 6.40964C22.1716 5.8578 22.1658 5.29664 22.0549 4.75414C21.5836 4.89414 20.7763 5.22664 19.6131 6.0363C19.3273 6.23464 18.9644 6.29414 18.6308 6.2008C16.5261 5.6093 14.3013 5.6093 12.1954 6.2008C11.8606 6.29414 11.5001 6.23464 11.2143 6.0363C10.0628 5.2348 9.2601 4.90114 8.7701 4.76347C8.66044 5.3013 8.65577 5.8578 8.75727 6.40614C8.91244 7.24847 8.73627 8.1083 8.26027 8.8293C7.75394 9.59814 7.4891 10.4965 7.49377 11.4298C7.49377 15.9728 9.68594 17.185 12.9771 17.6085C13.4111 17.6645 13.7774 17.9585 13.9268 18.3703C14.0749 18.7821 13.9804 19.2418 13.6818 19.5615C13.2303 20.0456 12.9981 20.7118 13.0436 21.3896L13.0448 22.309C13.0471 22.3556 13.0471 22.4023 13.0448 22.449L13.0459 24.5C13.0459 25.1451 12.5244 25.6666 11.8793 25.6666C11.2353 25.6666 10.7126 25.1451 10.7126 24.5V23.8338C7.5801 24.2421 5.7951 22.5633 4.55727 21.3966C4.04394 20.9148 3.56094 20.4586 3.20744 20.3665C2.58327 20.2043 2.20877 19.5673 2.37094 18.9443C2.5331 18.3213 3.1701 17.941 3.7931 18.1078C4.72527 18.3505 5.4206 19.005 6.15677 19.698C7.3491 20.8215 8.48077 21.8855 10.7126 21.4713V21.4678C10.6694 20.8506 10.7616 20.2183 10.9751 19.6198C8.57877 19.0225 5.16044 17.2806 5.16044 11.4356C5.15344 10.045 5.55244 8.69864 6.31194 7.5448C6.45427 7.32897 6.50794 7.0758 6.46244 6.82964C6.2291 5.56614 6.36327 4.2688 6.85327 3.08347C6.98627 2.76147 7.25577 2.5153 7.58827 2.41264C7.97444 2.29364 9.39777 2.06614 12.0939 3.81614C14.2768 3.2923 16.5506 3.2923 18.7323 3.81614C21.4296 2.06614 22.8518 2.29247 23.2379 2.41264C23.5704 2.5153 23.8399 2.76147 23.9729 3.08347C24.4641 4.27114 24.5983 5.5673 24.3638 6.8343C24.3183 7.07814 24.3638 7.3173 24.4898 7.50747C25.2598 8.65897 25.6669 10.0053 25.6669 11.403C25.6669 17.311 22.2568 19.0318 19.8569 19.6081C20.0716 20.2253 20.1614 20.8891 20.1101 21.5576L20.1136 24.5C20.1136 25.1451 19.5909 25.6666 18.9469 25.6666Z" fill="white"/>
</mask>
<g mask="url(#mask0)">
<g id="&#240;&#159;&#142;&#168; Color">
<rect id="Base" width="28" height="28" fill="#0D1C2E"/>
</g>
</g>
</g>
</svg>
