<svg width="28" height="28" viewBox="0 0 28 28" fill="none" xmlns="http://www.w3.org/2000/svg">
<g id="Icon/Outline/google">
<path id="Mask" fill-rule="evenodd" clip-rule="evenodd" d="M14.0033 4.66683C11.4577 4.66683 9.08 5.67133 7.30667 7.49716C5.53333 9.32066 4.59767 11.7275 4.67117 14.2743C4.80767 19.0623 8.81167 23.1212 13.595 23.3242C18.7073 23.526 23.0672 19.5768 23.3273 14.489C23.3355 14.3397 23.3343 13.6805 23.332 13.0668H15.163V14.9125H21.3568L20.8843 16.4268C20.0432 19.1265 17.9105 20.9792 15.1793 21.3828C13.1423 21.678 11.0202 21.0958 9.36 19.7693C7.73017 18.4708 6.70817 16.5832 6.55417 14.5893C6.39317 12.4812 7.08967 10.4722 8.52 8.92866C10.4637 6.82866 13.6055 6.02016 16.2982 6.894L17.2 5.22683C16.1792 4.85466 15.107 4.66683 14.0033 4.66683ZM13.9952 25.6657C13.8307 25.6657 13.6638 25.6622 13.497 25.6552C7.51433 25.402 2.50933 20.327 2.33783 14.3408C2.24799 11.1582 3.41699 8.1505 5.63249 5.87083C7.85033 3.59 10.8218 2.3335 14.0033 2.3335C15.6763 2.3335 17.2933 2.68116 18.8088 3.366C19.23 3.55616 19.5578 3.91783 19.706 4.35883C19.8565 4.80566 19.8145 5.30033 19.5905 5.7145L18.0832 8.49583C17.6737 9.2565 16.7497 9.58316 15.9423 9.246C14.0138 8.46083 11.6572 8.97416 10.2315 10.5142C9.24916 11.5747 8.76966 12.9583 8.88049 14.4097C8.98549 15.7607 9.69016 17.0487 10.8148 17.9458C11.9745 18.871 13.4468 19.2828 14.8375 19.0752C16.1208 18.885 17.1848 18.241 17.9082 17.2458H14.5213C13.5892 17.2458 12.8297 16.4875 12.8297 15.5542V12.4252C12.8297 11.493 13.5892 10.7335 14.5213 10.7335H23.9713C24.8965 10.7335 25.656 11.486 25.663 12.4112C25.6665 13.1473 25.6688 14.3922 25.6583 14.6068C25.3398 20.8042 20.1563 25.6657 13.9952 25.6657Z" fill="#0D1C2E"/>
<mask id="mask0" mask-type="alpha" maskUnits="userSpaceOnUse" x="2" y="2" width="24" height="24">
<path id="Mask_2" fill-rule="evenodd" clip-rule="evenodd" d="M14.0033 4.66683C11.4577 4.66683 9.08 5.67133 7.30667 7.49716C5.53333 9.32066 4.59767 11.7275 4.67117 14.2743C4.80767 19.0623 8.81167 23.1212 13.595 23.3242C18.7073 23.526 23.0672 19.5768 23.3273 14.489C23.3355 14.3397 23.3343 13.6805 23.332 13.0668H15.163V14.9125H21.3568L20.8843 16.4268C20.0432 19.1265 17.9105 20.9792 15.1793 21.3828C13.1423 21.678 11.0202 21.0958 9.36 19.7693C7.73017 18.4708 6.70817 16.5832 6.55417 14.5893C6.39317 12.4812 7.08967 10.4722 8.52 8.92866C10.4637 6.82866 13.6055 6.02016 16.2982 6.894L17.2 5.22683C16.1792 4.85466 15.107 4.66683 14.0033 4.66683ZM13.9952 25.6657C13.8307 25.6657 13.6638 25.6622 13.497 25.6552C7.51433 25.402 2.50933 20.327 2.33783 14.3408C2.24799 11.1582 3.41699 8.1505 5.63249 5.87083C7.85033 3.59 10.8218 2.3335 14.0033 2.3335C15.6763 2.3335 17.2933 2.68116 18.8088 3.366C19.23 3.55616 19.5578 3.91783 19.706 4.35883C19.8565 4.80566 19.8145 5.30033 19.5905 5.7145L18.0832 8.49583C17.6737 9.2565 16.7497 9.58316 15.9423 9.246C14.0138 8.46083 11.6572 8.97416 10.2315 10.5142C9.24916 11.5747 8.76966 12.9583 8.88049 14.4097C8.98549 15.7607 9.69016 17.0487 10.8148 17.9458C11.9745 18.871 13.4468 19.2828 14.8375 19.0752C16.1208 18.885 17.1848 18.241 17.9082 17.2458H14.5213C13.5892 17.2458 12.8297 16.4875 12.8297 15.5542V12.4252C12.8297 11.493 13.5892 10.7335 14.5213 10.7335H23.9713C24.8965 10.7335 25.656 11.486 25.663 12.4112C25.6665 13.1473 25.6688 14.3922 25.6583 14.6068C25.3398 20.8042 20.1563 25.6657 13.9952 25.6657Z" fill="white"/>
</mask>
<g mask="url(#mask0)">
<g id="&#240;&#159;&#142;&#168; Color">
<rect id="Base" width="28" height="28" fill="#0D1C2E"/>
</g>
</g>
</g>
</svg>
