<svg width="28" height="28" viewBox="0 0 28 28" fill="none" xmlns="http://www.w3.org/2000/svg">
<g id="Icon/Outline/linkedin">
<path id="Mask" fill-rule="evenodd" clip-rule="evenodd" d="M4.66671 11.6665H4.66438L4.66671 23.3332H7.00005V11.6665H4.66671ZM7.00004 25.6665H4.66671C3.37987 25.6665 2.33337 24.62 2.33337 23.3332V11.6665C2.33337 10.3797 3.37987 9.33317 4.66671 9.33317H7.00004C8.28687 9.33317 9.33337 10.3797 9.33337 11.6665V23.3332C9.33337 24.62 8.28687 25.6665 7.00004 25.6665ZM18.0891 13.641C18.2676 13.641 18.4484 13.6562 18.6269 13.6842C20.2019 13.942 21.3884 15.3957 21.3884 17.0675V23.3337H23.3333V16.9613C23.3333 14.0423 20.9789 11.667 18.0833 11.667C15.1888 11.667 12.8333 14.0423 12.8333 16.9613V23.3337H14.7781V16.9613C14.7781 15.9825 15.2039 15.0585 15.9483 14.4262C16.5503 13.9152 17.3074 13.641 18.0891 13.641ZM23.3333 25.667H21.3884C20.1028 25.667 19.0551 24.6193 19.0551 23.3337V17.0675C19.0551 16.5343 18.7016 16.0607 18.2524 15.9883C17.8604 15.9207 17.5874 16.0957 17.4603 16.203C17.2386 16.392 17.1114 16.6685 17.1114 16.9613V23.3337C17.1114 24.6193 16.0649 25.667 14.7781 25.667H12.8333C11.5476 25.667 10.4999 24.6193 10.4999 23.3337V16.9613C10.4999 12.7543 13.9019 9.33365 18.0833 9.33365C22.2646 9.33365 25.6666 12.7543 25.6666 16.9613V23.3337C25.6666 24.6193 24.6201 25.667 23.3333 25.667ZM5.83337 3.49984C5.18937 3.49984 4.66671 4.0225 4.66671 4.6665C4.66671 5.3105 5.18937 5.83317 5.83337 5.83317C6.47737 5.83317 7.00004 5.3105 7.00004 4.6665C7.00004 4.0225 6.47737 3.49984 5.83337 3.49984ZM5.83337 8.1665C3.90371 8.1665 2.33337 6.59617 2.33337 4.6665C2.33337 2.73684 3.90371 1.1665 5.83337 1.1665C7.76304 1.1665 9.33337 2.73684 9.33337 4.6665C9.33337 6.59617 7.76304 8.1665 5.83337 8.1665Z" fill="#0D1C2E"/>
<mask id="mask0" mask-type="alpha" maskUnits="userSpaceOnUse" x="2" y="1" width="24" height="25">
<path id="Mask_2" fill-rule="evenodd" clip-rule="evenodd" d="M4.66671 11.6665H4.66438L4.66671 23.3332H7.00005V11.6665H4.66671ZM7.00004 25.6665H4.66671C3.37987 25.6665 2.33337 24.62 2.33337 23.3332V11.6665C2.33337 10.3797 3.37987 9.33317 4.66671 9.33317H7.00004C8.28687 9.33317 9.33337 10.3797 9.33337 11.6665V23.3332C9.33337 24.62 8.28687 25.6665 7.00004 25.6665ZM18.0891 13.641C18.2676 13.641 18.4484 13.6562 18.6269 13.6842C20.2019 13.942 21.3884 15.3957 21.3884 17.0675V23.3337H23.3333V16.9613C23.3333 14.0423 20.9789 11.667 18.0833 11.667C15.1888 11.667 12.8333 14.0423 12.8333 16.9613V23.3337H14.7781V16.9613C14.7781 15.9825 15.2039 15.0585 15.9483 14.4262C16.5503 13.9152 17.3074 13.641 18.0891 13.641ZM23.3333 25.667H21.3884C20.1028 25.667 19.0551 24.6193 19.0551 23.3337V17.0675C19.0551 16.5343 18.7016 16.0607 18.2524 15.9883C17.8604 15.9207 17.5874 16.0957 17.4603 16.203C17.2386 16.392 17.1114 16.6685 17.1114 16.9613V23.3337C17.1114 24.6193 16.0649 25.667 14.7781 25.667H12.8333C11.5476 25.667 10.4999 24.6193 10.4999 23.3337V16.9613C10.4999 12.7543 13.9019 9.33365 18.0833 9.33365C22.2646 9.33365 25.6666 12.7543 25.6666 16.9613V23.3337C25.6666 24.6193 24.6201 25.667 23.3333 25.667ZM5.83337 3.49984C5.18937 3.49984 4.66671 4.0225 4.66671 4.6665C4.66671 5.3105 5.18937 5.83317 5.83337 5.83317C6.47737 5.83317 7.00004 5.3105 7.00004 4.6665C7.00004 4.0225 6.47737 3.49984 5.83337 3.49984ZM5.83337 8.1665C3.90371 8.1665 2.33337 6.59617 2.33337 4.6665C2.33337 2.73684 3.90371 1.1665 5.83337 1.1665C7.76304 1.1665 9.33337 2.73684 9.33337 4.6665C9.33337 6.59617 7.76304 8.1665 5.83337 8.1665Z" fill="white"/>
</mask>
<g mask="url(#mask0)">
<g id="&#240;&#159;&#142;&#168; Color">
<rect id="Base" width="28" height="28" fill="#0D1C2E"/>
</g>
</g>
</g>
</svg>
