<svg width="28" height="28" viewBox="0 0 28 28" fill="none" xmlns="http://www.w3.org/2000/svg">
<g id="Icon/Outline/twitter">
<path id="Mask" fill-rule="evenodd" clip-rule="evenodd" d="M22.1849 7.76344V7.76577V7.76344ZM9.93139 20.9969C9.95939 20.9969 9.98973 20.998 10.0177 21.0004C16.6619 20.9572 20.6274 15.881 20.6274 10.974C20.6274 10.5284 20.8561 10.2402 21.0591 9.9847C21.2434 9.75137 21.5292 9.39203 21.7836 8.87403C20.8584 8.8647 20.0324 8.45403 19.5517 7.8917C19.0489 7.35387 18.3267 7.02487 17.5474 7.00153C16.7961 6.9712 16.0296 7.26053 15.4602 7.8007C14.7019 8.52053 14.3776 9.6067 14.6132 10.6334L14.9177 11.9622L13.5574 12.0579C10.0387 12.3215 7.60039 10.8154 5.92623 9.2567C5.93323 11.6134 6.71606 14.7575 10.2744 16.7852L11.3921 17.4222L10.6489 18.4734C9.87539 19.5689 8.71106 20.2677 7.52573 20.7145C8.30856 20.9012 9.11356 20.9969 9.91623 20.9969H9.93023H9.93139ZM9.9314 23.3337C9.90107 23.3337 9.8684 23.3326 9.83807 23.3302C7.9679 23.3174 6.0919 22.8822 4.40723 22.0667C3.77373 21.7587 3.41557 21.0844 3.51707 20.3844C3.61973 19.6762 4.1634 19.1209 4.86807 19.0066C6.08723 18.8059 7.09873 18.4489 7.8314 17.9717C3.30823 14.5896 3.42723 9.52623 3.72007 7.3819C3.8064 6.75423 4.25323 6.2304 4.85757 6.04723C5.47123 5.86057 6.10707 6.04723 6.52707 6.5244C8.31907 8.55557 10.1099 9.5764 12.2099 9.73157C12.2706 8.3724 12.8492 7.06223 13.8537 6.1079C14.8769 5.13607 16.2151 4.6274 17.6197 4.6694C19.0256 4.71257 20.3299 5.30523 21.2912 6.33773C21.3892 6.44973 21.7556 6.65273 22.1977 6.4544C22.7776 6.19423 23.4367 6.28057 23.9174 6.6819C24.3969 7.07973 24.6011 7.70623 24.4517 8.3164C24.0749 9.86923 23.3306 10.8702 22.9549 11.3497C22.7589 17.3056 17.9196 23.3337 9.9314 23.3337Z" fill="#0D1C2E"/>
<mask id="mask0" mask-type="alpha" maskUnits="userSpaceOnUse" x="3" y="4" width="22" height="20">
<path id="Mask_2" fill-rule="evenodd" clip-rule="evenodd" d="M22.1849 7.76344V7.76577V7.76344ZM9.93139 20.9969C9.95939 20.9969 9.98973 20.998 10.0177 21.0004C16.6619 20.9572 20.6274 15.881 20.6274 10.974C20.6274 10.5284 20.8561 10.2402 21.0591 9.9847C21.2434 9.75137 21.5292 9.39203 21.7836 8.87403C20.8584 8.8647 20.0324 8.45403 19.5517 7.8917C19.0489 7.35387 18.3267 7.02487 17.5474 7.00153C16.7961 6.9712 16.0296 7.26053 15.4602 7.8007C14.7019 8.52053 14.3776 9.6067 14.6132 10.6334L14.9177 11.9622L13.5574 12.0579C10.0387 12.3215 7.60039 10.8154 5.92623 9.2567C5.93323 11.6134 6.71606 14.7575 10.2744 16.7852L11.3921 17.4222L10.6489 18.4734C9.87539 19.5689 8.71106 20.2677 7.52573 20.7145C8.30856 20.9012 9.11356 20.9969 9.91623 20.9969H9.93023H9.93139ZM9.9314 23.3337C9.90107 23.3337 9.8684 23.3326 9.83807 23.3302C7.9679 23.3174 6.0919 22.8822 4.40723 22.0667C3.77373 21.7587 3.41557 21.0844 3.51707 20.3844C3.61973 19.6762 4.1634 19.1209 4.86807 19.0066C6.08723 18.8059 7.09873 18.4489 7.8314 17.9717C3.30823 14.5896 3.42723 9.52623 3.72007 7.3819C3.8064 6.75423 4.25323 6.2304 4.85757 6.04723C5.47123 5.86057 6.10707 6.04723 6.52707 6.5244C8.31907 8.55557 10.1099 9.5764 12.2099 9.73157C12.2706 8.3724 12.8492 7.06223 13.8537 6.1079C14.8769 5.13607 16.2151 4.6274 17.6197 4.6694C19.0256 4.71257 20.3299 5.30523 21.2912 6.33773C21.3892 6.44973 21.7556 6.65273 22.1977 6.4544C22.7776 6.19423 23.4367 6.28057 23.9174 6.6819C24.3969 7.07973 24.6011 7.70623 24.4517 8.3164C24.0749 9.86923 23.3306 10.8702 22.9549 11.3497C22.7589 17.3056 17.9196 23.3337 9.9314 23.3337Z" fill="white"/>
</mask>
<g mask="url(#mask0)">
<g id="&#240;&#159;&#142;&#168; Color">
<rect id="Base" width="28" height="28" fill="#0D1C2E"/>
</g>
</g>
</g>
</svg>
